<svg xmlns="http://www.w3.org/2000/svg" id="Capa_1" version="1.1" viewBox="0 0 156 132.4" fill="white"><path d="M99.71,22.98c-23.68,3.96-52.14,6.66-63.87,30.89-4.38,9.04-4.27,18.02-4,27.89h17.05c-4.21-20.71,14.29-39.87,35.27-34.54,15.14,3.84,24.31,19.32,21.16,34.54h16.61c.32,0,.42-.72.46-1.01.6-5.09-.03-14.31-1.28-19.33-2.8-11.29-10.52-20.21-19.99-26.31l-1.69-1.07.29-11.06Z"></path><path d="M117.95,89.98c.08-.4-.1-1.96,0-2.06.17-.17,4.63-.05,4.63-.05l-.27,17.05c-1.47,0-3.39.04-4.4.04,0,0,.03-1.06.03-2.06-2.05,1.72-3.75,2.63-6.58,2.32-10.42-1.15-9.01-19.62,3.07-17.18,1.52.31,2.61,1.03,3.51,1.93ZM116.68,100.17c1.18-1.18,1.48-3.39,1.2-4.97-.66-3.87-6.21-4.98-8.22-1.6-3.13,5.28,3.09,10.51,7.02,6.57Z"></path><path d="M48.88,97.62h-12.64c-.27,3.12,2.99,4.94,5.75,3.84.72-.29,1.9-1.79,2.04-1.79h4.26c-.01,2.18-2.56,4.34-4.5,5.05-5.33,1.95-11.44-1.05-11.97-6.95-1.22-13.51,18.58-13.16,17.06-.16ZM44.48,94.98c-.37-4.99-7.67-5.01-8.23,0h8.23Z"></path><path d="M60.81,99.61c-.04-.1-.12-.26-.19-.64-.5-2.63.06-5.84,1.78-7.96,4.38-5.4,14.25-3.76,15.8,3.32,2.39,10.86-13.16,15.81-17.39,5.29ZM68.8,91.51c-4.96.68-5.05,9.23-.35,9.91,7.56,1.08,6.85-10.81.35-9.91Z"></path><path d="M87.58,98.51s-.02-2.44-.02-2.97l8.94.03c1.74,9.07-10.48,12.75-15.57,6.02-1.93-2.56-1.92-6.3-.65-9.16,2.76-6.24,13.99-6.14,15.93.79-1.11,0-2.52.05-3.6-.08,0,0-1.26-1.24-3.33-1.36-4.4-.26-6.01,2.32-5.4,6.28.65,4.19,7.89,4.71,8.8.46h-5.09Z"></path><path d="M64.68,64.19c8.13-1.4,9.08,10.76,1.96,11.66-7.72.98-8.9-10.46-1.96-11.66Z"></path><path d="M87.31,64.19c5.53-1.14,8.97,5.69,5.21,9.91-3.91,4.39-10.75.34-9.76-5.35.34-1.94,2.68-4.17,4.55-4.56Z"></path><path d="M55.06,101.74h5.29c-.04,1.17,0,1.99,0,3.23h-9.7s0-.41,0-.44v-16.31c.72,0,4.41-.06,4.41-.06v13.58Z"></path><path d="M102.67,88.22l-.29,16.75c-.69,0-4.12-.1-4.12-.1v-16.65h4.41Z"></path></svg>